{
  "accessors": [
    {
      "bufferView": 2,
      "componentType": 5126,
      "count": 559,
      "max": [
        1.000000238418579,
        1.0,
        1.0
      ],
      "min": [
        -0.9999998211860657,
        -1.0000003576278687,
        -1.0
      ],
      "type": "VEC3"
    },
    {
      "bufferView": 2,
      "byteOffset": 6708,
      "componentType": 5126,
      "count": 559,
      "max": [
        1.0,
        1.0,
        1.0
      ],
      "min": [
        -1.0,
        -1.0,
        -1.0
      ],
      "type": "VEC3"
    },
    {
      "bufferView": 1,
      "componentType": 5126,
      "count": 559,
      "max": [
        1.000000238418579,
        1.0
      ],
      "min": [
        0.0,
        0.0
      ],
      "type": "VEC2"
    },
    {
      "bufferView": 0,
      "componentType": 5125,
      "count": 2880,
      "type": "SCALAR"
    },
    {
      "bufferView": 2,
      "byteOffset": 13416,
      "componentType": 5126,
      "count": 3560,
      "max": [
        15.431245803833008,
        118.36857604980469,
        12.713104248046875
      ],
      "min": [
        -30.130985260009766,
        -187.45347595214844,
        -215.26480102539063
      ],
      "type": "VEC3"
    },
    {
      "bufferView": 2,
      "byteOffset": 56136,
      "componentType": 5126,
      "count": 3560,
      "max": [
        0.9978589415550232,
        1.0,
        0.999527633190155
      ],
      "min": [
        -1.0,
        -1.0,
        -1.0
      ],
      "type": "VEC3"
    },
    {
      "bufferView": 1,
      "byteOffset": 4472,
      "componentType": 5126,
      "count": 3560,
      "max": [
        1.0,
        1.0000001192092896
      ],
      "min": [
        0.0,
        0.0
      ],
      "type": "VEC2"
    },
    {
      "bufferView": 0,
      "byteOffset": 11520,
      "componentType": 5125,
      "count": 5406,
      "type": "SCALAR"
    },
    {
      "bufferView": 2,
      "byteOffset": 98856,
      "componentType": 5126,
      "count": 5006,
      "max": [
        15.431245803833008,
        118.36857604980469,
        12.713104248046875
      ],
      "min": [
        -30.130985260009766,
        -187.45347595214844,
        -215.26480102539063
      ],
      "type": "VEC3"
    },
    {
      "bufferView": 2,
      "byteOffset": 158928,
      "componentType": 5126,
      "count": 5006,
      "max": [
        1.0,
        1.0,
        1.0
      ],
      "min": [
        -1.0,
        -1.0,
        -1.0
      ],
      "type": "VEC3"
    },
    {
      "bufferView": 1,
      "byteOffset": 32952,
      "componentType": 5126,
      "count": 5006,
      "max": [
        1.0,
        1.0000001192092896
      ],
      "min": [
        0.0,
        -1.1102230246251565e-16
      ],
      "type": "VEC2"
    },
    {
      "bufferView": 0,
      "byteOffset": 33144,
      "componentType": 5125,
      "count": 7854,
      "type": "SCALAR"
    },
    {
      "bufferView": 2,
      "byteOffset": 219000,
      "componentType": 5126,
      "count": 588,
      "max": [
        15.164312362670898,
        -25.468202590942383,
        -41.4525032043457
      ],
      "min": [
        -4.000482559204102,
        -43.981895446777344,
        -90.5984878540039
      ],
      "type": "VEC3"
    },
    {
      "bufferView": 2,
      "byteOffset": 226056,
      "componentType": 5126,
      "count": 588,
      "max": [
        0.8652498722076416,
        0.8652492165565491,
        1.0
      ],
      "min": [
        -0.8652498126029968,
        -0.8652493357658386,
        0.49919405579566956
      ],
      "type": "VEC3"
    },
    {
      "bufferView": 1,
      "byteOffset": 73000,
      "componentType": 5126,
      "count": 588,
      "max": [
        1.0,
        1.0
      ],
      "min": [
        8.881784197001252e-16,
        0.0530414916574955
      ],
      "type": "VEC2"
    },
    {
      "bufferView": 0,
      "byteOffset": 64560,
      "componentType": 5125,
      "count": 954,
      "type": "SCALAR"
    }
  ],
  "asset": {
    "extras": {
      "author": "f3nix (https://sketchfab.com/f3nix)",
      "license": "CC-BY-4.0 (http://creativecommons.org/licenses/by/4.0/)",
      "source": "https://sketchfab.com/3d-models/three-man-light-jet-tron-f51a9bbecbf74c3294b88abd55a1de34",
      "title": "Three man light Jet Tron"
    },
    "generator": "Sketchfab-12.67.0",
    "version": "2.0"
  },
  "bufferViews": [
    {
      "buffer": 0,
      "byteLength": 68376,
      "name": "floatBufferViews",
      "target": 34963
    },
    {
      "buffer": 0,
      "byteLength": 77704,
      "byteOffset": 68376,
      "byteStride": 8,
      "name": "floatBufferViews",
      "target": 34962
    },
    {
      "buffer": 0,
      "byteLength": 233112,
      "byteOffset": 146080,
      "byteStride": 12,
      "name": "floatBufferViews",
      "target": 34962
    }
  ],
  "buffers": [
    {
      "byteLength": 379192,
      "uri": "scene.bin"
    }
  ],
  "materials": [
    {
      "doubleSided": true,
      "name": "Material.001",
      "pbrMetallicRoughness": {
        "baseColorFactor": [
          0.011085516185381523,
          0.18109886261300132,
          0.4224466463414634,
          1.0
        ],
        "roughnessFactor": 0.780910977
      }
    },
    {
      "doubleSided": true,
      "emissiveFactor": [
        0.26241221894849903,
        1.0,
        1.0
      ],
      "name": "tron",
      "pbrMetallicRoughness": {
        "baseColorFactor": [
          0.026241221894849905,
          0.4286904966139066,
          1.0,
          1.0
        ],
        "metallicFactor": 0.0,
        "roughnessFactor": 0.780910977
      }
    },
    {
      "doubleSided": true,
      "name": "black",
      "pbrMetallicRoughness": {
        "baseColorFactor": [
          0.002986115973398792,
          0.002897567378342373,
          0.002897567378342373,
          1.0
        ],
        "metallicFactor": 0.0
      }
    },
    {
      "doubleSided": true,
      "name": "tron.001",
      "pbrMetallicRoughness": {
        "baseColorFactor": [
          0.8,
          0.8,
          0.8,
          1.0
        ],
        "metallicFactor": 0.0,
        "roughnessFactor": 0.780910977
      }
    }
  ],
  "meshes": [
    {
      "name": "Sphere_Material.001_0",
      "primitives": [
        {
          "attributes": {
            "NORMAL": 1,
            "POSITION": 0,
            "TEXCOORD_0": 2
          },
          "indices": 3,
          "material": 0,
          "mode": 4
        }
      ]
    },
    {
      "name": "Torus.001_tron_0",
      "primitives": [
        {
          "attributes": {
            "NORMAL": 5,
            "POSITION": 4,
            "TEXCOORD_0": 6
          },
          "indices": 7,
          "material": 1,
          "mode": 4
        }
      ]
    },
    {
      "name": "Torus.001_black_0",
      "primitives": [
        {
          "attributes": {
            "NORMAL": 9,
            "POSITION": 8,
            "TEXCOORD_0": 10
          },
          "indices": 11,
          "material": 2,
          "mode": 4
        }
      ]
    },
    {
      "name": "Torus.001_tron.001_0",
      "primitives": [
        {
          "attributes": {
            "NORMAL": 13,
            "POSITION": 12,
            "TEXCOORD_0": 14
          },
          "indices": 15,
          "material": 3,
          "mode": 4
        }
      ]
    }
  ],
  "nodes": [
    {
      "children": [
        1
      ],
      "matrix": [
        1.0,
        0.0,
        0.0,
        0.0,
        0.0,
        2.220446049250313e-16,
        -1.0,
        0.0,
        0.0,
        1.0,
        2.220446049250313e-16,
        0.0,
        0.0,
        0.0,
        0.0,
        1.0
      ],
      "name": "Sketchfab_model"
    },
    {
      "children": [
        2
      ],
      "matrix": [
        1.0,
        0.0,
        0.0,
        0.0,
        0.0,
        0.0,
        1.0,
        0.0,
        0.0,
        -1.0,
        0.0,
        0.0,
        0.0,
        0.0,
        0.0,
        1.0
      ],
      "name": "2de995dfe4b6464396ec437a284c74d9.fbx"
    },
    {
      "children": [
        3,
        5
      ],
      "name": "RootNode"
    },
    {
      "children": [
        4
      ],
      "matrix": [
        43.532955169677734,
        0.0,
        0.0,
        0.0,
        0.0,
        -3.59039125844881e-06,
        -22.037664413451857,
        0.0,
        0.0,
        15.396277427673136,
        -2.508371978621659e-06,
        0.0,
        65.72710418701172,
        10.778326988220215,
        0.2326158881187439,
        1.0
      ],
      "name": "Sphere"
    },
    {
      "mesh": 0,
      "name": "Sphere_Material.001_0"
    },
    {
      "children": [
        6,
        7,
        8
      ],
      "matrix": [
        9.817536389307073e-08,
        -1.3003721237182582,
        0.0,
        0.0,
        9.817536396525589e-08,
        7.218515361663634e-15,
        -1.3003721237182582,
        0.0,
        1.3003721237182544,
        9.817536396525589e-08,
        9.817536389307073e-08,
        0.0,
        124.69666290283203,
        3.9111714363098145,
        -44.91804122924805,
        1.0
      ],
      "name": "Torus.001"
    },
    {
      "mesh": 1,
      "name": "Torus.001_tron_0"
    },
    {
      "mesh": 2,
      "name": "Torus.001_black_0"
    },
    {
      "mesh": 3,
      "name": "Torus.001_tron.001_0"
    }
  ],
  "scene": 0,
  "scenes": [
    {
      "name": "Sketchfab_Scene",
      "nodes": [
        0
      ]
    }
  ]
}
