<?xml version="1.0" encoding="UTF-8" standalone="no"?>
<!-- Created with Inkscape (http://www.inkscape.org/) -->

<svg
   width="130mm"
   height="60mm"
   viewBox="0 0 130 60"
   version="1.1"
   id="svg5"
   inkscape:version="1.1.2 (b8e25be833, 2022-02-05)"
   sodipodi:docname="banner.svg"
   xmlns:inkscape="http://www.inkscape.org/namespaces/inkscape"
   xmlns:sodipodi="http://sodipodi.sourceforge.net/DTD/sodipodi-0.dtd"
   xmlns:xlink="http://www.w3.org/1999/xlink"
   xmlns="http://www.w3.org/2000/svg"
   xmlns:svg="http://www.w3.org/2000/svg">
  <sodipodi:namedview
     id="namedview7"
     pagecolor="#505050"
     bordercolor="#ffffff"
     borderopacity="1"
     inkscape:pageshadow="0"
     inkscape:pageopacity="0"
     inkscape:pagecheckerboard="1"
     inkscape:document-units="mm"
     showgrid="false"
     width="200mm"
     inkscape:zoom="1.8521778"
     inkscape:cx="179.5184"
     inkscape:cy="114.7298"
     inkscape:window-width="1366"
     inkscape:window-height="746"
     inkscape:window-x="-8"
     inkscape:window-y="-8"
     inkscape:window-maximized="1"
     inkscape:current-layer="layer1"
     fit-margin-top="0"
     fit-margin-left="0"
     fit-margin-right="0"
     fit-margin-bottom="0" />
  <defs
     id="defs2">
    <rect
       x="316.86948"
       y="134.00143"
       width="144.691"
       height="43.521833"
       id="rect40903" />
    <rect
       x="315.84439"
       y="39.952969"
       width="109.0608"
       height="46.971733"
       id="rect23129" />
    <rect
       x="17.276958"
       y="306.12613"
       width="275.64032"
       height="101.63596"
       id="rect2924" />
    <linearGradient
       inkscape:collect="always"
       id="linearGradient16330">
      <stop
         style="stop-color:#00ffce;stop-opacity:1;"
         offset="0"
         id="stop16326" />
      <stop
         style="stop-color:#00ffce;stop-opacity:0;"
         offset="1"
         id="stop16328" />
    </linearGradient>
    <linearGradient
       inkscape:collect="always"
       id="linearGradient15630">
      <stop
         style="stop-color:#00ffce;stop-opacity:1"
         offset="0"
         id="stop15626" />
      <stop
         style="stop-color:#005fff;stop-opacity:1"
         offset="1"
         id="stop15628" />
    </linearGradient>
    <rect
       x="14.112917"
       y="147.64282"
       width="343.05243"
       height="93.362373"
       id="rect3090" />
    <linearGradient
       inkscape:collect="always"
       xlink:href="#linearGradient15630"
       id="linearGradient15632"
       x1="24.016212"
       y1="174.38004"
       x2="348.51309"
       y2="174.38004"
       gradientUnits="userSpaceOnUse" />
    <filter
       inkscape:collect="always"
       style="color-interpolation-filters:sRGB"
       id="filter16134"
       x="-0.033845138"
       y="-0.28059448"
       width="1.0676903"
       height="1.561189">
      <feGaussianBlur
         inkscape:collect="always"
         stdDeviation="4.5761008"
         id="feGaussianBlur16136" />
    </filter>
    <rect
       x="14.112917"
       y="147.64282"
       width="343.05243"
       height="93.362373"
       id="rect16142" />
    <linearGradient
       inkscape:collect="always"
       xlink:href="#linearGradient16330"
       id="linearGradient16332"
       x1="51.553719"
       y1="18.484848"
       x2="51.553719"
       y2="37.474747"
       gradientUnits="userSpaceOnUse" />
    <linearGradient
       inkscape:collect="always"
       xlink:href="#linearGradient16330"
       id="linearGradient16702"
       gradientUnits="userSpaceOnUse"
       x1="51.553719"
       y1="18.484848"
       x2="51.553719"
       y2="37.474747"
       gradientTransform="translate(-100,-100)" />
    <linearGradient
       inkscape:collect="always"
       xlink:href="#linearGradient15630"
       id="linearGradient16704"
       gradientUnits="userSpaceOnUse"
       x1="24.016212"
       y1="174.38004"
       x2="348.51309"
       y2="174.38004" />
    <rect
       x="17.276958"
       y="306.12613"
       width="166.01636"
       height="39.248344"
       id="rect12327" />
    <linearGradient
       inkscape:collect="always"
       xlink:href="#linearGradient15630"
       id="linearGradient20585"
       x1="35.785118"
       y1="315.12326"
       x2="163.81519"
       y2="315.12326"
       gradientUnits="userSpaceOnUse" />
    <linearGradient
       inkscape:collect="always"
       xlink:href="#linearGradient15630"
       id="linearGradient36413"
       x1="63.425335"
       y1="30.784143"
       x2="65.853783"
       y2="30.784143"
       gradientUnits="userSpaceOnUse"
       gradientTransform="matrix(0.20474571,0,0,0.40830845,54.479478,17.430575)" />
    <rect
       x="316.86948"
       y="134.00143"
       width="144.691"
       height="43.521833"
       id="rect52379" />
  </defs>
  <g
     inkscape:label="Layer 1"
     inkscape:groupmode="layer"
     id="layer1">
    <rect
       style="fill:#000000;stroke-width:0.4"
       id="rect846"
       width="130"
       height="60"
       x="-2.7755576e-16"
       y="-5.5511151e-16"
       rx="3"
       ry="3" />
    <g
       id="g36181"
       transform="translate(-2.4885353)">
      <g
         id="g16714"
         transform="matrix(0.59499685,0,0,0.59499685,6.9396816,-0.57723152)">
        <g
           aria-label="jet-flame-vfx"
           transform="matrix(0.26458333,0,0,0.26458333,0,5.2525255)"
           id="text3088"
           style="font-size:40px;line-height:1.25;font-family:'Segoe UI';-inkscape-font-specification:'Segoe UI';letter-spacing:2.1px;white-space:pre;shape-inside:url(#rect3090);fill:url(#linearGradient15632);filter:url(#filter16134)">
          <path
             d="m 24.211524,193.95035 -0.195312,-3.67187 3.90625,-0.35157 q 3.144531,-0.27343 4.550781,-1.83593 1.425781,-1.54297 1.425781,-4.72657 v -6.28906 h 4.140625 v 5.66406 q 0,3.69141 -1.09375,6.01563 -1.09375,2.32422 -3.417969,3.49609 -2.324218,1.19141 -5.996093,1.46485 z m 1.640625,-26.44531 v -3.63281 h 8.359375 v 3.63281 z m 8.046875,10.23437 v -13.86718 h 4.140625 v 13.86718 z m 1.640625,-17.14843 q -1.191406,0 -2.050781,-0.83985 -0.839844,-0.85937 -0.839844,-2.05078 0,-1.21094 0.839844,-2.05078 0.859375,-0.83984 2.050781,-0.83984 1.210938,0 2.050781,0.83984 0.839844,0.83984 0.839844,2.05078 0,1.19141 -0.839844,2.05078 -0.839843,0.83985 -2.050781,0.83985 z"
             style="font-family:'Cascadia Code';-inkscape-font-specification:'Cascadia Code';text-align:center;text-anchor:middle"
             id="path60692" />
          <path
             d="m 59.749024,184.96598 q -5.292968,0 -8.183593,-2.77344 -2.871094,-2.79297 -2.871094,-8.00781 0,-5.07813 2.441406,-7.89063 2.441406,-2.8125 6.894531,-2.8125 4.199219,0 6.484375,2.53906 2.304688,2.53907 2.304688,7.38282 0,1.42578 -0.117188,2.65625 h -14.53125 v -3.16407 h 10.898438 q 0,-2.79297 -1.328125,-4.27734 -1.328125,-1.50391 -3.671875,-1.50391 -2.636719,0 -4.101563,1.79688 -1.445312,1.79687 -1.445312,5.07812 0,3.59375 1.992187,5.46875 2.011719,1.875 5.703125,1.875 1.289063,0 2.539063,-0.13672 1.25,-0.15625 2.539062,-0.41015 l 0.507813,3.63281 q -1.835938,0.35156 -3.359375,0.44922 -1.523438,0.0977 -2.695313,0.0977 z"
             style="font-family:'Cascadia Code';-inkscape-font-specification:'Cascadia Code';text-align:center;text-anchor:middle"
             id="path60694" />
          <path
             d="m 87.23965,184.96598 q -4.707031,0 -6.816406,-1.95313 -2.089844,-1.95312 -2.089844,-6.25 v -3.51562 h 4.140625 v 3.32031 q 0,2.46094 1.191406,3.57422 1.210938,1.11328 3.964844,1.11328 0.976562,0 2.070312,-0.0977 1.09375,-0.11719 2.5,-0.29297 l 0.46875,3.63282 q -1.367187,0.23437 -2.675781,0.35156 -1.289062,0.11719 -2.753906,0.11719 z M 78.3334,174.80973 v -17.1875 h 4.140625 v 17.1875 z m -5.195313,-7.30469 v -3.63281 h 18.75 v 3.63281 z"
             style="font-family:'Cascadia Code';-inkscape-font-specification:'Cascadia Code';text-align:center;text-anchor:middle"
             id="path60696" />
          <path
             d="m 99.261527,172.5441 v -3.63281 h 19.531253 v 3.63281 z"
             style="font-family:'Cascadia Code';-inkscape-font-specification:'Cascadia Code';text-align:center;text-anchor:middle"
             id="path60698" />
          <path
             d="m 130.69746,184.57535 v -18.94531 q 0,-10.74219 9.80469,-10.74219 2.22656,0 4.29688,0.39063 l -0.42969,3.59375 q -1.23047,-0.15625 -2.16797,-0.21485 -0.9375,-0.0586 -1.81641,-0.0586 -5.54687,0 -5.54687,6.83594 v 19.14062 z m -6.52343,-12.5 v -3.63281 h 19.14062 v 3.63281 z"
             style="font-family:'Cascadia Code';-inkscape-font-specification:'Cascadia Code';text-align:center;text-anchor:middle"
             id="path60700" />
          <path
             d="m 163.18809,184.96598 q -3.59375,0 -5.19532,-1.95313 -1.60156,-1.95312 -1.60156,-6.25 v -21.48437 h 4.14063 v 21.28906 q 0,1.64062 0.3125,2.67578 0.3125,1.03516 1.21093,1.52344 0.91797,0.48828 2.69532,0.48828 1.62109,0 4.14062,-0.74219 l 0.46875,3.63281 q -1.58203,0.42969 -3.04687,0.625 -1.44532,0.19532 -3.125,0.19532 z m -12.89063,-26.05469 v -3.63281 h 6.44531 v 3.63281 z"
             style="font-family:'Cascadia Code';-inkscape-font-specification:'Cascadia Code';text-align:center;text-anchor:middle"
             id="path60702" />
          <path
             d="m 189.89747,184.77066 -0.27344,-6.13281 -0.54687,-1.71875 v -5.35156 q 0,-2.07031 -1.46485,-3.02735 -1.44531,-0.97656 -4.3164,-1.05468 l -4.96094,-0.13672 0.39062,-3.67188 4.17969,0.0586 q 5.13672,0.0781 7.61719,2.22656 2.5,2.12891 2.5,6.23047 v 8.63281 l 3.51562,0.42969 v 3.32031 z m -7.30469,0.19532 q -3.24219,0 -5.01953,-1.5625 -1.77734,-1.5625 -1.77734,-4.41407 0,-3.28125 2.4414,-5.03906 2.46094,-1.75781 6.9336,-1.75781 1.85546,0 3.30078,0.23437 1.46484,0.21485 2.59765,0.66407 l -0.85937,2.8125 q -1.3086,-0.29297 -2.5586,-0.33204 -1.25,-0.0586 -2.55859,-0.0586 -5.39062,0 -5.39062,3.28125 0,1.36719 0.91796,2.10938 0.9375,0.74218 2.63672,0.74218 1.9336,0 3.22266,-0.66406 1.30859,-0.66406 1.95312,-1.69922 0.64454,-1.03515 0.64454,-2.1289 v -2.26563 l 1.21093,5.3125 h -1.64062 l 0.66406,-0.625 q 0,1.79688 -0.83984,3.00781 -0.82032,1.19141 -2.32422,1.79688 -1.50391,0.58594 -3.55469,0.58594 z"
             style="font-family:'Cascadia Code';-inkscape-font-specification:'Cascadia Code';text-align:center;text-anchor:middle"
             id="path60704" />
          <path
             d="m 216.56777,184.57535 v -15.82031 q 0,-2.14844 -1.60156,-2.14844 -2.03125,0 -2.03125,2.8125 l -1.40625,-2.96875 h 1.60156 q 0.0977,-1.21094 0.95703,-2.08984 0.87891,-0.87891 2.51953,-0.87891 2.14844,0 3.125,1.15234 0.97657,1.15235 0.97657,3.73047 v 16.21094 z m -14.92187,0 v -20.70312 h 3.67187 l 0.46875,4.375 v 16.32812 z m 7.77343,0 v -16.21094 q 0,-1.75781 -1.64062,-1.75781 -1.99219,0 -1.99219,2.8125 l -1.21094,-2.96875 h 1.32813 q 0.23437,-2.96875 3.55469,-2.96875 1.62109,0 2.53906,1.11328 0.9375,1.11328 0.9375,3.37891 v 16.60156 z"
             style="font-family:'Cascadia Code';-inkscape-font-specification:'Cascadia Code';text-align:center;text-anchor:middle"
             id="path60706" />
          <path
             d="m 238.51153,184.96598 q -5.29297,0 -8.1836,-2.77344 -2.87109,-2.79297 -2.87109,-8.00781 0,-5.07813 2.44141,-7.89063 2.4414,-2.8125 6.89453,-2.8125 4.19922,0 6.48437,2.53906 2.30469,2.53907 2.30469,7.38282 0,1.42578 -0.11719,2.65625 H 230.9334 v -3.16407 h 10.89844 q 0,-2.79297 -1.32813,-4.27734 -1.32812,-1.50391 -3.67187,-1.50391 -2.63672,0 -4.10156,1.79688 -1.44532,1.79687 -1.44532,5.07812 0,3.59375 1.99219,5.46875 2.01172,1.875 5.70313,1.875 1.28906,0 2.53906,-0.13672 1.25,-0.15625 2.53906,-0.41015 l 0.50781,3.63281 q -1.83593,0.35156 -3.35937,0.44922 -1.52344,0.0977 -2.69531,0.0977 z"
             style="font-family:'Cascadia Code';-inkscape-font-specification:'Cascadia Code';text-align:center;text-anchor:middle"
             id="path60708" />
          <path
             d="m 252.48652,172.5441 v -3.63281 h 19.53125 v 3.63281 z"
             style="font-family:'Cascadia Code';-inkscape-font-specification:'Cascadia Code';text-align:center;text-anchor:middle"
             id="path60710" />
          <path
             d="m 285.03574,184.57535 -7.40234,-20.70312 h 4.41406 l 5.56641,17.1875 h 0.35156 l 5.56641,-17.1875 h 4.41406 l -7.40234,20.70312 z"
             style="font-family:'Cascadia Code';-inkscape-font-specification:'Cascadia Code';text-align:center;text-anchor:middle"
             id="path60712" />
          <path
             d="m 309.45997,184.57535 v -18.94531 q 0,-10.74219 9.80469,-10.74219 2.22656,0 4.29687,0.39063 l -0.42969,3.59375 q -1.23047,-0.15625 -2.16797,-0.21485 -0.9375,-0.0586 -1.8164,-0.0586 -5.54688,0 -5.54688,6.83594 v 19.14062 z m -6.52344,-12.5 v -3.63281 h 19.14063 v 3.63281 z"
             style="font-family:'Cascadia Code';-inkscape-font-specification:'Cascadia Code';text-align:center;text-anchor:middle"
             id="path60714" />
          <path
             d="m 329.21622,184.57535 8.24219,-11.40625 6.36719,-9.29687 h 4.6875 l -8.55469,11.75781 -6.05469,8.94531 z m 14.60938,0 -6.28906,-8.94531 -8.32032,-11.75781 h 4.6875 l 6.36719,9.29687 8.24219,11.40625 z"
             style="font-family:'Cascadia Code';-inkscape-font-specification:'Cascadia Code';text-align:center;text-anchor:middle"
             id="path60716" />
        </g>
        <g
           aria-label="jet-flame-vfx"
           transform="matrix(0.26458333,0,0,0.26458333,0,5.2525253)"
           id="text16140"
           style="font-size:40px;line-height:1.25;font-family:'Segoe UI';-inkscape-font-specification:'Segoe UI';letter-spacing:2.1px;white-space:pre;shape-inside:url(#rect16142);fill:url(#linearGradient16704)">
          <path
             d="m 24.211524,193.95035 -0.195312,-3.67187 3.90625,-0.35157 q 3.144531,-0.27343 4.550781,-1.83593 1.425781,-1.54297 1.425781,-4.72657 v -6.28906 h 4.140625 v 5.66406 q 0,3.69141 -1.09375,6.01563 -1.09375,2.32422 -3.417969,3.49609 -2.324218,1.19141 -5.996093,1.46485 z m 1.640625,-26.44531 v -3.63281 h 8.359375 v 3.63281 z m 8.046875,10.23437 v -13.86718 h 4.140625 v 13.86718 z m 1.640625,-17.14843 q -1.191406,0 -2.050781,-0.83985 -0.839844,-0.85937 -0.839844,-2.05078 0,-1.21094 0.839844,-2.05078 0.859375,-0.83984 2.050781,-0.83984 1.210938,0 2.050781,0.83984 0.839844,0.83984 0.839844,2.05078 0,1.19141 -0.839844,2.05078 -0.839843,0.83985 -2.050781,0.83985 z"
             style="font-family:'Cascadia Code';-inkscape-font-specification:'Cascadia Code';text-align:center;text-anchor:middle"
             id="path60719" />
          <path
             d="m 59.749024,184.96598 q -5.292968,0 -8.183593,-2.77344 -2.871094,-2.79297 -2.871094,-8.00781 0,-5.07813 2.441406,-7.89063 2.441406,-2.8125 6.894531,-2.8125 4.199219,0 6.484375,2.53906 2.304688,2.53907 2.304688,7.38282 0,1.42578 -0.117188,2.65625 h -14.53125 v -3.16407 h 10.898438 q 0,-2.79297 -1.328125,-4.27734 -1.328125,-1.50391 -3.671875,-1.50391 -2.636719,0 -4.101563,1.79688 -1.445312,1.79687 -1.445312,5.07812 0,3.59375 1.992187,5.46875 2.011719,1.875 5.703125,1.875 1.289063,0 2.539063,-0.13672 1.25,-0.15625 2.539062,-0.41015 l 0.507813,3.63281 q -1.835938,0.35156 -3.359375,0.44922 -1.523438,0.0977 -2.695313,0.0977 z"
             style="font-family:'Cascadia Code';-inkscape-font-specification:'Cascadia Code';text-align:center;text-anchor:middle"
             id="path60721" />
          <path
             d="m 87.23965,184.96598 q -4.707031,0 -6.816406,-1.95313 -2.089844,-1.95312 -2.089844,-6.25 v -3.51562 h 4.140625 v 3.32031 q 0,2.46094 1.191406,3.57422 1.210938,1.11328 3.964844,1.11328 0.976562,0 2.070312,-0.0977 1.09375,-0.11719 2.5,-0.29297 l 0.46875,3.63282 q -1.367187,0.23437 -2.675781,0.35156 -1.289062,0.11719 -2.753906,0.11719 z M 78.3334,174.80973 v -17.1875 h 4.140625 v 17.1875 z m -5.195313,-7.30469 v -3.63281 h 18.75 v 3.63281 z"
             style="font-family:'Cascadia Code';-inkscape-font-specification:'Cascadia Code';text-align:center;text-anchor:middle"
             id="path60723" />
          <path
             d="m 99.261527,172.5441 v -3.63281 h 19.531253 v 3.63281 z"
             style="font-family:'Cascadia Code';-inkscape-font-specification:'Cascadia Code';text-align:center;text-anchor:middle"
             id="path60725" />
          <path
             d="m 130.69746,184.57535 v -18.94531 q 0,-10.74219 9.80469,-10.74219 2.22656,0 4.29688,0.39063 l -0.42969,3.59375 q -1.23047,-0.15625 -2.16797,-0.21485 -0.9375,-0.0586 -1.81641,-0.0586 -5.54687,0 -5.54687,6.83594 v 19.14062 z m -6.52343,-12.5 v -3.63281 h 19.14062 v 3.63281 z"
             style="font-family:'Cascadia Code';-inkscape-font-specification:'Cascadia Code';text-align:center;text-anchor:middle"
             id="path60727" />
          <path
             d="m 163.18809,184.96598 q -3.59375,0 -5.19532,-1.95313 -1.60156,-1.95312 -1.60156,-6.25 v -21.48437 h 4.14063 v 21.28906 q 0,1.64062 0.3125,2.67578 0.3125,1.03516 1.21093,1.52344 0.91797,0.48828 2.69532,0.48828 1.62109,0 4.14062,-0.74219 l 0.46875,3.63281 q -1.58203,0.42969 -3.04687,0.625 -1.44532,0.19532 -3.125,0.19532 z m -12.89063,-26.05469 v -3.63281 h 6.44531 v 3.63281 z"
             style="font-family:'Cascadia Code';-inkscape-font-specification:'Cascadia Code';text-align:center;text-anchor:middle"
             id="path60729" />
          <path
             d="m 189.89747,184.77066 -0.27344,-6.13281 -0.54687,-1.71875 v -5.35156 q 0,-2.07031 -1.46485,-3.02735 -1.44531,-0.97656 -4.3164,-1.05468 l -4.96094,-0.13672 0.39062,-3.67188 4.17969,0.0586 q 5.13672,0.0781 7.61719,2.22656 2.5,2.12891 2.5,6.23047 v 8.63281 l 3.51562,0.42969 v 3.32031 z m -7.30469,0.19532 q -3.24219,0 -5.01953,-1.5625 -1.77734,-1.5625 -1.77734,-4.41407 0,-3.28125 2.4414,-5.03906 2.46094,-1.75781 6.9336,-1.75781 1.85546,0 3.30078,0.23437 1.46484,0.21485 2.59765,0.66407 l -0.85937,2.8125 q -1.3086,-0.29297 -2.5586,-0.33204 -1.25,-0.0586 -2.55859,-0.0586 -5.39062,0 -5.39062,3.28125 0,1.36719 0.91796,2.10938 0.9375,0.74218 2.63672,0.74218 1.9336,0 3.22266,-0.66406 1.30859,-0.66406 1.95312,-1.69922 0.64454,-1.03515 0.64454,-2.1289 v -2.26563 l 1.21093,5.3125 h -1.64062 l 0.66406,-0.625 q 0,1.79688 -0.83984,3.00781 -0.82032,1.19141 -2.32422,1.79688 -1.50391,0.58594 -3.55469,0.58594 z"
             style="font-family:'Cascadia Code';-inkscape-font-specification:'Cascadia Code';text-align:center;text-anchor:middle"
             id="path60731" />
          <path
             d="m 216.56777,184.57535 v -15.82031 q 0,-2.14844 -1.60156,-2.14844 -2.03125,0 -2.03125,2.8125 l -1.40625,-2.96875 h 1.60156 q 0.0977,-1.21094 0.95703,-2.08984 0.87891,-0.87891 2.51953,-0.87891 2.14844,0 3.125,1.15234 0.97657,1.15235 0.97657,3.73047 v 16.21094 z m -14.92187,0 v -20.70312 h 3.67187 l 0.46875,4.375 v 16.32812 z m 7.77343,0 v -16.21094 q 0,-1.75781 -1.64062,-1.75781 -1.99219,0 -1.99219,2.8125 l -1.21094,-2.96875 h 1.32813 q 0.23437,-2.96875 3.55469,-2.96875 1.62109,0 2.53906,1.11328 0.9375,1.11328 0.9375,3.37891 v 16.60156 z"
             style="font-family:'Cascadia Code';-inkscape-font-specification:'Cascadia Code';text-align:center;text-anchor:middle"
             id="path60733" />
          <path
             d="m 238.51153,184.96598 q -5.29297,0 -8.1836,-2.77344 -2.87109,-2.79297 -2.87109,-8.00781 0,-5.07813 2.44141,-7.89063 2.4414,-2.8125 6.89453,-2.8125 4.19922,0 6.48437,2.53906 2.30469,2.53907 2.30469,7.38282 0,1.42578 -0.11719,2.65625 H 230.9334 v -3.16407 h 10.89844 q 0,-2.79297 -1.32813,-4.27734 -1.32812,-1.50391 -3.67187,-1.50391 -2.63672,0 -4.10156,1.79688 -1.44532,1.79687 -1.44532,5.07812 0,3.59375 1.99219,5.46875 2.01172,1.875 5.70313,1.875 1.28906,0 2.53906,-0.13672 1.25,-0.15625 2.53906,-0.41015 l 0.50781,3.63281 q -1.83593,0.35156 -3.35937,0.44922 -1.52344,0.0977 -2.69531,0.0977 z"
             style="font-family:'Cascadia Code';-inkscape-font-specification:'Cascadia Code';text-align:center;text-anchor:middle"
             id="path60735" />
          <path
             d="m 252.48652,172.5441 v -3.63281 h 19.53125 v 3.63281 z"
             style="font-family:'Cascadia Code';-inkscape-font-specification:'Cascadia Code';text-align:center;text-anchor:middle"
             id="path60737" />
          <path
             d="m 285.03574,184.57535 -7.40234,-20.70312 h 4.41406 l 5.56641,17.1875 h 0.35156 l 5.56641,-17.1875 h 4.41406 l -7.40234,20.70312 z"
             style="font-family:'Cascadia Code';-inkscape-font-specification:'Cascadia Code';text-align:center;text-anchor:middle"
             id="path60739" />
          <path
             d="m 309.45997,184.57535 v -18.94531 q 0,-10.74219 9.80469,-10.74219 2.22656,0 4.29687,0.39063 l -0.42969,3.59375 q -1.23047,-0.15625 -2.16797,-0.21485 -0.9375,-0.0586 -1.8164,-0.0586 -5.54688,0 -5.54688,6.83594 v 19.14062 z m -6.52344,-12.5 v -3.63281 h 19.14063 v 3.63281 z"
             style="font-family:'Cascadia Code';-inkscape-font-specification:'Cascadia Code';text-align:center;text-anchor:middle"
             id="path60741" />
          <path
             d="m 329.21622,184.57535 8.24219,-11.40625 6.36719,-9.29687 h 4.6875 l -8.55469,11.75781 -6.05469,8.94531 z m 14.60938,0 -6.28906,-8.94531 -8.32032,-11.75781 h 4.6875 l 6.36719,9.29687 8.24219,11.40625 z"
             style="font-family:'Cascadia Code';-inkscape-font-specification:'Cascadia Code';text-align:center;text-anchor:middle"
             id="path60743" />
        </g>
      </g>
      <g
         id="g16718"
         transform="matrix(0.66217234,0,0,0.66217234,3.15401,-3.1086171)">
        <path
           id="path16172"
           style="fill:none;stroke:url(#linearGradient16332);stroke-width:0.926042"
           d="M 81.595745,50 A 31.595745,31.595745 0 0 1 50,81.595745 31.595745,31.595745 0 0 1 18.404255,50 31.595745,31.595745 0 0 1 50,18.404255 31.595745,31.595745 0 0 1 81.595745,50 Z" />
        <path
           id="circle16700"
           style="fill:none;stroke:url(#linearGradient16702);stroke-width:0.926042"
           transform="scale(-1)"
           d="M -18.404255,-50 A 31.595745,31.595745 0 0 1 -50,-18.404255 31.595745,31.595745 0 0 1 -81.595745,-50 31.595745,31.595745 0 0 1 -50,-81.595745 31.595745,31.595745 0 0 1 -18.404255,-50 Z" />
      </g>
      <g
         id="g1010"
         transform="matrix(0.65289735,0,0,0.65289735,4.0862003,-1.9102645)">
        <path
           id="path16742"
           style="fill:#00ffce;stroke-width:0.926042"
           d="m 47.259074,57.568489 a 0.69999999,0.69999999 0 0 1 -0.7,0.7 0.69999999,0.69999999 0 0 1 -0.7,-0.7 0.69999999,0.69999999 0 0 1 0.7,-0.7 0.69999999,0.69999999 0 0 1 0.7,0.7 z" />
        <path
           id="circle17156"
           style="fill:#00ffce;stroke-width:0.926042"
           d="m 52.705966,57.568489 a 0.69999999,0.69999999 0 0 1 -0.7,0.7 0.69999999,0.69999999 0 0 1 -0.7,-0.7 0.69999999,0.69999999 0 0 1 0.7,-0.7 0.69999999,0.69999999 0 0 1 0.7,0.7 z" />
        <path
           id="circle17158"
           style="fill:#00ffce;stroke-width:0.926042"
           d="m 49.98252,57.568489 a 0.69999999,0.69999999 0 0 1 -0.7,0.7 0.69999999,0.69999999 0 0 1 -0.7,-0.7 0.69999999,0.69999999 0 0 1 0.7,-0.7 0.69999999,0.69999999 0 0 1 0.7,0.7 z" />
      </g>
    </g>
    <path
       id="rect36325"
       style="fill:url(#linearGradient36413);stroke-width:0.115654"
       d="m 67.465542,18.655437 h 0.497213 v 22.689126 h -0.497213 z" />
    <g
       aria-label="@ZIKORANO"
       transform="matrix(0.22667021,0,0,0.22667021,65.481006,-47.628395)"
       id="text2922"
       style="font-size:58.3631px;line-height:1.25;font-family:'Segoe UI';-inkscape-font-specification:'Segoe UI';letter-spacing:5.83631px;white-space:pre;shape-inside:url(#rect2924);fill:url(#linearGradient20585)">
      <path
         d="m 63.11745,350.2935 h 1.727544 c 0.840428,0 1.587474,-0.32683 2.194449,-0.9805 0.280143,-0.28014 0.466904,-0.60697 0.606975,-0.93381 0.140072,0.32684 0.373524,0.65367 0.653666,0.93381 0.560285,0.65367 1.307331,0.9805 2.147758,0.9805 h 1.774236 c 0.840427,0 1.587473,-0.32683 2.147758,-0.9805 0.560285,-0.65366 0.887117,-1.30733 0.887117,-2.05438 v -17.9758 c 0,-0.84043 -0.326832,-1.58747 -0.980498,-2.14776 -0.653666,-0.56028 -1.354021,-0.88712 -2.054377,-0.88712 H 57.28115 c -0.887118,0 -1.634164,0.32684 -2.194449,0.9805 -0.560285,0.65367 -0.840427,1.35402 -0.840427,2.05438 v 23.8121 c 0,0.88712 0.326833,1.63417 0.980498,2.19445 0.653666,0.56029 1.307331,0.84043 2.054378,0.84043 h 13.773668 l 0.700356,-3.50178 h -14.00712 v -22.8783 h 14.00712 v 17.042 h -2.33452 v -14.70748 h -3.50178 v 1.86762 c -0.186762,-0.37352 -0.420214,-0.70036 -0.747047,-0.9805 -0.653665,-0.56028 -1.354021,-0.88712 -2.054377,-0.88712 -0.887118,0 -1.634164,0.32684 -2.194449,0.9805 -0.560285,0.65367 -0.840427,1.35402 -0.840427,2.05438 v 12.1395 c 0,0.88712 0.326833,1.63417 0.980498,2.19445 0.653666,0.56029 1.307331,0.84043 2.054378,0.84043 z m 2.801424,-14.70748 v 11.2057 h -2.33452 v -11.2057 z"
         style="font-weight:bold;font-size:46.6904px;font-family:Horta;-inkscape-font-specification:'Horta Bold';text-align:center;text-anchor:middle"
         id="path57907" />
      <path
         d="M 97.855148,326.24794 H 84.361622 v 4.9025 h 8.404272 l -8.404272,22.64484 v 4.90249 h 13.540216 v -4.90249 h -8.404272 l 8.357582,-22.64484 z"
         style="font-weight:bold;font-size:46.6904px;font-family:Horta;-inkscape-font-specification:'Horta Bold';text-align:center;text-anchor:middle"
         id="path57909" />
      <path
         d="m 107.00649,358.69777 h 5.13595 v -32.44983 h -5.13595 z"
         style="font-weight:bold;font-size:46.6904px;font-family:Horta;-inkscape-font-specification:'Horta Bold';text-align:center;text-anchor:middle"
         id="path57911" />
      <path
         d="m 139.68981,358.69777 -7.84399,-19.28313 6.06975,-13.1667 h -5.60285 l -5.46277,12.79317 V 326.24794 H 121.714 v 32.44983 h 5.13595 v -8.7311 l 2.33452,-4.80911 4.99587,13.54021 z"
         style="font-weight:bold;font-size:46.6904px;font-family:Horta;-inkscape-font-specification:'Horta Bold';text-align:center;text-anchor:middle"
         id="path57913" />
      <path
         d="m 160.70053,330.68353 c 0,-1.21395 -0.42021,-2.28783 -1.26064,-3.12825 -0.84043,-0.84043 -1.82093,-1.30734 -2.9415,-1.30734 h -5.8363 c -1.16726,0 -2.14775,0.46691 -2.98818,1.30734 -0.84043,0.84042 -1.21395,1.9143 -1.21395,3.12825 v 23.57865 c 0,1.21395 0.37352,2.28783 1.21395,3.12826 0.84043,0.88712 1.82092,1.30733 2.98818,1.30733 h 5.8363 c 1.12057,0 2.10107,-0.42021 2.9415,-1.26064 0.84043,-0.84043 1.26064,-1.91431 1.26064,-3.17495 z m -5.13594,23.11175 h -3.96869 v -22.64484 h 3.96869 z"
         style="font-weight:bold;font-size:46.6904px;font-family:Horta;-inkscape-font-specification:'Horta Bold';text-align:center;text-anchor:middle"
         id="path57915" />
      <path
         d="m 181.94468,358.69777 h 5.55616 l -6.44327,-14.42733 3.45509,-1.77424 v -11.81267 c 0,-1.21395 -0.42022,-2.28783 -1.26064,-3.12825 -0.84043,-0.84043 -1.82093,-1.30734 -2.9415,-1.30734 h -10.03844 v 32.44983 h 5.13595 v -11.48584 l 1.12057,-0.60697 z m -2.56797,-19.37651 -3.96868,2.14775 v -10.31857 h 3.96868 z"
         style="font-weight:bold;font-size:46.6904px;font-family:Horta;-inkscape-font-specification:'Horta Bold';text-align:center;text-anchor:middle"
         id="path57917" />
      <path
         d="m 194.08421,358.69777 h 5.13594 v -11.6726 l 3.96869,-2.10107 v 13.77367 h 5.13594 v -28.01424 c 0,-1.21395 -0.42021,-2.28783 -1.26064,-3.12825 -0.84043,-0.84043 -1.82092,-1.30734 -2.94149,-1.30734 h -5.8363 c -1.16726,0 -2.14776,0.46691 -2.98819,1.30734 -0.84043,0.84042 -1.21395,1.9143 -1.21395,3.12825 z m 5.13594,-17.41552 v -10.13181 h 3.96869 v 8.03075 z"
         style="font-weight:bold;font-size:46.6904px;font-family:Horta;-inkscape-font-specification:'Horta Bold';text-align:center;text-anchor:middle"
         id="path57919" />
      <path
         d="m 223.03227,358.69777 v -27.54733 h 3.96869 v 27.54733 h 5.13594 v -28.01424 c 0,-1.21395 -0.42021,-2.28783 -1.26064,-3.12825 -0.84043,-0.84043 -1.82093,-1.30734 -2.9415,-1.30734 h -1.16726 c -1.16726,0 -2.14775,0.46691 -2.98818,1.30734 -0.32683,0.32683 -0.56029,0.70035 -0.74705,1.07387 v -2.38121 h -5.13594 v 32.44983 z"
         style="font-weight:bold;font-size:46.6904px;font-family:Horta;-inkscape-font-specification:'Horta Bold';text-align:center;text-anchor:middle"
         id="path57921" />
      <path
         d="m 255.94903,330.68353 c 0,-1.21395 -0.42021,-2.28783 -1.26064,-3.12825 -0.84042,-0.84043 -1.82092,-1.30734 -2.94149,-1.30734 h -5.8363 c -1.16726,0 -2.14776,0.46691 -2.98819,1.30734 -0.84042,0.84042 -1.21395,1.9143 -1.21395,3.12825 v 23.57865 c 0,1.21395 0.37353,2.28783 1.21395,3.12826 0.84043,0.88712 1.82093,1.30733 2.98819,1.30733 h 5.8363 c 1.12057,0 2.10107,-0.42021 2.94149,-1.26064 0.84043,-0.84043 1.26064,-1.91431 1.26064,-3.17495 z m -5.13594,23.11175 h -3.96868 v -22.64484 h 3.96868 z"
         style="font-weight:bold;font-size:46.6904px;font-family:Horta;-inkscape-font-specification:'Horta Bold';text-align:center;text-anchor:middle"
         id="path57923" />
    </g>
    <g
       aria-label="SHADERS"
       transform="matrix(0.1478522,0,0,0.1478522,43.180945,16.309903)"
       id="text52377"
       style="font-size:20px;line-height:1.25;font-family:'Segoe UI';-inkscape-font-specification:'Segoe UI';letter-spacing:4.0125px;white-space:pre;shape-inside:url(#rect52379);fill:#0cff95">
      <path
         d="m 343.3073,141.76195 h -7.92 v -0.82 c 0.02,-1.08 0.9,-1.9 1.96,-1.9 h 5.96 v -4.02 h -5.94 c -3.26,0 -5.92,2.66 -5.94,5.9 v 4.86 h 7.92 v 0.96 c 0,0.96 -0.86,1.74 -1.92,1.74 h -6 v 4.02 h 6 c 3.26,0 5.86,-2.62 5.88,-5.86 z"
         style="font-family:'BERD ENG';-inkscape-font-specification:'BERD ENG';text-align:center;text-anchor:middle"
         id="path57892" />
      <path
         d="m 360.41981,135.02195 h -3.96 v 6.74 h -3.96 v -6.74 h -3.96 v 17.48 h 3.96 v -6.72 h 3.96 v 6.72 h 3.96 z"
         style="font-family:'BERD ENG';-inkscape-font-specification:'BERD ENG';text-align:center;text-anchor:middle"
         id="path57894" />
      <path
         d="m 369.61233,144.46195 v -3.52 c 0,-1.08 0.9,-1.9 1.98,-1.9 1.08,0 1.98,0.82 1.98,1.9 v 3.52 z m 1.98,-9.44 c -3.28,0 -5.94,2.66 -5.94,5.94 v 11.54 h 3.96 v -4.02 h 3.96 v 4.02 h 3.96 v -11.52 c 0,-3.28 -2.66,-5.96 -5.94,-5.96 z"
         style="font-family:'BERD ENG';-inkscape-font-specification:'BERD ENG';text-align:center;text-anchor:middle"
         id="path57896" />
      <path
         d="m 390.48483,146.58195 c -0.02,1.06 -0.92,1.9 -2,1.9 h -1.96 v -9.44 h 2.32 c 0.96,0 1.64,0.94 1.64,1.92 z m -1.66,-11.56 h -6.26 v 17.48 h 5.94 c 0.7,0 1.34,-0.12 1.96,-0.34 0.08,-0.02 0.16,-0.04 0.22,-0.08 0.22,-0.08 0.44,-0.18 0.64,-0.3 0.28,-0.14 0.54,-0.32 0.8,-0.52 0.28,-0.22 0.54,-0.46 0.78,-0.72 v 0 c 0.3,-0.34 0.56,-0.7 0.78,-1.1 0.04,-0.04 0.06,-0.1 0.08,-0.16 0.4,-0.76 0.66,-1.64 0.68,-2.56 v -5.76 c 0,-3.16 -2.48,-5.76 -5.62,-5.94 z"
         style="font-family:'BERD ENG';-inkscape-font-specification:'BERD ENG';text-align:center;text-anchor:middle"
         id="path57898" />
      <path
         d="m 403.63734,141.54195 v -0.62 c 0,-0.68 0.34,-1.24 0.88,-1.58 0.32,-0.2 0.68,-0.3 1.06,-0.3 h 5.98 v -4.02 h -6.22 c -0.26,0 -0.5,0.02 -0.74,0.06 0,0 0,0 0,0 -2.8,0.48 -4.92,2.92 -4.92,5.84 v 11.58 h 11.88 v -4.02 h -7.92 v -2.7 h 3.96 v -4.02 h -3.96 z"
         style="font-family:'BERD ENG';-inkscape-font-specification:'BERD ENG';text-align:center;text-anchor:middle"
         id="path57900" />
      <path
         d="m 424.70986,140.02195 c 0,1.1 -0.84,1.74 -1.94,1.74 h -2.02 v -2.72 h 3.96 z m 3.96,-5 h -11.88 v 17.48 h 3.96 v -6.72 h 2.02 c 1.1,0 1.94,1.14 1.94,2.24 v 4.48 h 3.96 v -4.48 c 0,-1.54 -0.52,-3.18 -1.48,-4.26 0.96,-1.06 1.48,-2.2 1.48,-3.74 z"
         style="font-family:'BERD ENG';-inkscape-font-specification:'BERD ENG';text-align:center;text-anchor:middle"
         id="path57902" />
      <path
         d="m 445.78237,141.76195 h -7.92 v -0.82 c 0.02,-1.08 0.9,-1.9 1.96,-1.9 h 5.96 v -4.02 h -5.94 c -3.26,0 -5.92,2.66 -5.94,5.9 v 4.86 h 7.92 v 0.96 c 0,0.96 -0.86,1.74 -1.92,1.74 h -6 v 4.02 h 6 c 3.26,0 5.86,-2.62 5.88,-5.86 z"
         style="font-family:'BERD ENG';-inkscape-font-specification:'BERD ENG';text-align:center;text-anchor:middle"
         id="path57904" />
    </g>
  </g>
</svg>
