{
    "asset" : {
        "generator" : "Khronos glTF Blender I/O v1.2.20",
        "version" : "2.0"
    },
    "scene" : 0,
    "scenes" : [
        {
            "nodes" : [
                2
            ],
            "name" : "Scene"
        }
    ],
    "nodes" : [
        {
            "mesh" : 0,
            "name" : "JA_black_0"
        },
        {
            "mesh" : 1,
            "name" : "JA_tron_0"
        },
        {
            "children" : [
                0,
                1
            ],
            "name" : "JA_Root"
        }
    ],
    "animations" : [
        {
            "samplers" : [
                {
                    "input" : 8,
                    "interpolation" : "LINEAR",
                    "output" : 9
                }
            ],
            "name" : "SteeringAnimation",
            "channels" : [
                {
                    "target" : {
                        "path" : "rotation",
                        "node" : 2
                    },
                    "sampler" : 0
                }
            ]
        }
    ],
    "materials" : [
        {
            "name" : "black",
            "pbrMetallicRoughness" : {
                "roughnessFactor" : 0.9998847246170044,
                "metallicFactor" : 0,
                "baseColorFactor" : [
                    0.0005154599784873426,
                    0.0005154599784873426,
                    0.0005154599784873426,
                    1
                ]
            }
        },
        {
            "emissiveFactor" : [
                0.7719716429710388,
                0.19251181185245514,
                0.0004902107757516205
            ],
            "name" : "tron",
            "pbrMetallicRoughness" : {
                "roughnessFactor" : 0.7809109687805176,
                "metallicFactor" : 0,
                "baseColorFactor" : [
                    0.9602083563804626,
                    0.23855797946453094,
                    0.0006728273001499474,
                    1
                ]
            }
        }
    ],
    "meshes" : [
        {
            "name" : "Cylinder.004_black_0",
            "primitives" : [
                {
                    "material" : 0,
                    "indices" : 3,
                    "attributes" : {
                        "TEXCOORD_0" : 0,
                        "POSITION" : 1,
                        "NORMAL" : 2
                    }
                }
            ]
        },
        {
            "name" : "Cylinder.004_tron_0",
            "primitives" : [
                {
                    "material" : 1,
                    "indices" : 7,
                    "attributes" : {
                        "TEXCOORD_0" : 4,
                        "POSITION" : 5,
                        "NORMAL" : 6
                    }
                }
            ]
        }
    ],
    "accessors" : [
        {
            "type" : "VEC2",
            "componentType" : 5126,
            "bufferView" : 0,
            "count" : 23816
        },
        {
            "type" : "VEC3",
            "max" : [
                1.1140429973602295,
                0.3702283799648285,
                0.6353381872177124
            ],
            "min" : [
                -1.1140432357788086,
                -0.18397337198257446,
                -0.492587149143219
            ],
            "componentType" : 5126,
            "bufferView" : 1,
            "count" : 23816
        },
        {
            "type" : "VEC3",
            "componentType" : 5126,
            "bufferView" : 2,
            "count" : 23816
        },
        {
            "type" : "SCALAR",
            "componentType" : 5123,
            "bufferView" : 3,
            "count" : 25032
        },
        {
            "type" : "VEC2",
            "componentType" : 5126,
            "bufferView" : 4,
            "count" : 5079
        },
        {
            "type" : "VEC3",
            "max" : [
                1.1140432357788086,
                0.3702283501625061,
                0.7253355383872986
            ],
            "min" : [
                -1.1140429973602295,
                -0.18397338688373566,
                -0.4537869095802307
            ],
            "componentType" : 5126,
            "bufferView" : 5,
            "count" : 5079
        },
        {
            "type" : "VEC3",
            "componentType" : 5126,
            "bufferView" : 6,
            "count" : 5079
        },
        {
            "type" : "SCALAR",
            "componentType" : 5123,
            "bufferView" : 7,
            "count" : 5364
        },
        {
            "type" : "SCALAR",
            "max" : [
                12.916666666666666
            ],
            "min" : [
                0.041666666666666664
            ],
            "componentType" : 5126,
            "bufferView" : 8,
            "count" : 310
        },
        {
            "type" : "VEC4",
            "componentType" : 5126,
            "bufferView" : 9,
            "count" : 310
        }
    ],
    "bufferViews" : [
        {
            "byteLength" : 190528,
            "buffer" : 0,
            "byteOffset" : 0
        },
        {
            "byteLength" : 285792,
            "buffer" : 0,
            "byteOffset" : 190528
        },
        {
            "byteLength" : 285792,
            "buffer" : 0,
            "byteOffset" : 476320
        },
        {
            "byteLength" : 50064,
            "buffer" : 0,
            "byteOffset" : 762112
        },
        {
            "byteLength" : 40632,
            "buffer" : 0,
            "byteOffset" : 812176
        },
        {
            "byteLength" : 60948,
            "buffer" : 0,
            "byteOffset" : 852808
        },
        {
            "byteLength" : 60948,
            "buffer" : 0,
            "byteOffset" : 913756
        },
        {
            "byteLength" : 10728,
            "buffer" : 0,
            "byteOffset" : 974704
        },
        {
            "byteLength" : 1240,
            "buffer" : 0,
            "byteOffset" : 985432
        },
        {
            "byteLength" : 4960,
            "buffer" : 0,
            "byteOffset" : 986672
        }
    ],
    "buffers" : [
        {
            "byteLength" : 991632,
            "uri" : "scene.bin"
        }
    ]
}
